{
  "accessors": [
    {
      "bufferView": 2,
      "componentType": 5126,
      "count": 198,
      "max": [
        0.18248499929904938,
        0.09860099852085114,
        0.9576219916343689
      ],
      "min": [
        -0.18286800384521484,
        -0.10931699723005295,
        0.4686880111694336
      ],
      "type": "VEC3"
    },
    {
      "bufferView": 2,
      "byteOffset": 2376,
      "componentType": 5126,
      "count": 198,
      "max": [
        0.9944381713867188,
        0.9972906112670898,
        0.39031076431274414
      ],
      "min": [
        -0.9944531321525574,
        -0.9969933032989502,
        -0.978522539138794
      ],
      "type": "VEC3"
    },
    {
      "bufferView": 1,
      "componentType": 5126,
      "count": 198,
      "max": [
        0.48736101388931274,
        0.6675119996070862
      ],
      "min": [
        0.14298300445079803,
        0.5628979802131653
      ],
      "type": "VEC2"
    },
    {
      "bufferView": 0,
      "componentType": 5125,
      "count": 858,
      "type": "SCALAR"
    },
    {
      "bufferView": 2,
      "byteOffset": 4752,
      "componentType": 5126,
      "count": 516,
      "max": [
        0.08367700129747391,
        0.0554019995033741,
        1.9163750410079956
      ],
      "min": [
        -0.07975299656391144,
        -0.09858699887990952,
        1.8791279792785645
      ],
      "type": "VEC3"
    },
    {
      "bufferView": 2,
      "byteOffset": 10944,
      "componentType": 5126,
      "count": 516,
      "max": [
        0.9994779229164124,
        0.9994543194770813,
        0.9980989098548889
      ],
      "min": [
        -0.9994803071022034,
        -0.9722940921783447,
        -0.9877632260322571
      ],
      "type": "VEC3"
    },
    {
      "bufferView": 1,
      "byteOffset": 1584,
      "componentType": 5126,
      "count": 516,
      "max": [
        0.7747020125389099,
        0.9760649800300598
      ],
      "min": [
        0.53233802318573,
        0.9153640270233154
      ],
      "type": "VEC2"
    },
    {
      "bufferView": 0,
      "byteOffset": 3432,
      "componentType": 5125,
      "count": 1854,
      "type": "SCALAR"
    },
    {
      "bufferView": 2,
      "byteOffset": 17136,
      "componentType": 5126,
      "count": 375,
      "max": [
        0.179284006357193,
        0.09948500245809555,
        0.15310600399971008
      ],
      "min": [
        -0.18027900159358978,
        -0.2094999998807907,
        0.004282999783754349
      ],
      "type": "VEC3"
    },
    {
      "bufferView": 2,
      "byteOffset": 21636,
      "componentType": 5126,
      "count": 375,
      "max": [
        0.9996668696403503,
        0.9972474575042725,
        0.9981635212898254
      ],
      "min": [
        -0.9996680617332458,
        -0.9947741031646729,
        -1.0
      ],
      "type": "VEC3"
    },
    {
      "bufferView": 1,
      "byteOffset": 5712,
      "componentType": 5126,
      "count": 375,
      "max": [
        0.4893999993801117,
        0.08445800095796585
      ],
      "min": [
        0.01374099962413311,
        0.005382999777793884
      ],
      "type": "VEC2"
    },
    {
      "bufferView": 0,
      "byteOffset": 10848,
      "componentType": 5125,
      "count": 1710,
      "type": "SCALAR"
    },
    {
      "bufferView": 2,
      "byteOffset": 26136,
      "componentType": 5126,
      "count": 1867,
      "max": [
        0.6657099723815918,
        0.17597199976444244,
        1.7936450242996216
      ],
      "min": [
        -0.6718930006027222,
        -0.1643729954957962,
        0.11276700347661972
      ],
      "type": "VEC3"
    },
    {
      "bufferView": 2,
      "byteOffset": 48540,
      "componentType": 5126,
      "count": 1867,
      "max": [
        0.9997631907463074,
        0.9999582767486572,
        0.9736575484275818
      ],
      "min": [
        -0.9997283816337585,
        -0.9987401366233826,
        -0.9999998807907104
      ],
      "type": "VEC3"
    },
    {
      "bufferView": 1,
      "byteOffset": 8712,
      "componentType": 5126,
      "count": 1867,
      "max": [
        0.9832550287246704,
        0.4956029951572418
      ],
      "min": [
        0.00940799992531538,
        0.0060339998453855515
      ],
      "type": "VEC2"
    },
    {
      "bufferView": 0,
      "byteOffset": 17688,
      "componentType": 5125,
      "count": 8544,
      "type": "SCALAR"
    },
    {
      "bufferView": 2,
      "byteOffset": 70944,
      "componentType": 5126,
      "count": 2118,
      "max": [
        0.6786850094795227,
        0.16761599481105804,
        1.7884080410003662
      ],
      "min": [
        -0.6810479760169983,
        -0.15905100107192993,
        0.05905799940228462
      ],
      "type": "VEC3"
    },
    {
      "bufferView": 2,
      "byteOffset": 96360,
      "componentType": 5126,
      "count": 2118,
      "max": [
        0.9999799728393555,
        0.9971681833267212,
        0.9999752044677734
      ],
      "min": [
        -0.9999721050262451,
        -0.9997979998588562,
        -0.9989272356033325
      ],
      "type": "VEC3"
    },
    {
      "bufferView": 1,
      "byteOffset": 23648,
      "componentType": 5126,
      "count": 2118,
      "max": [
        0.9894189834594727,
        0.9011020064353943
      ],
      "min": [
        0.009739000350236893,
        0.5031129717826843
      ],
      "type": "VEC2"
    },
    {
      "bufferView": 0,
      "byteOffset": 51864,
      "componentType": 5125,
      "count": 8586,
      "type": "SCALAR"
    },
    {
      "bufferView": 2,
      "byteOffset": 121776,
      "componentType": 5126,
      "count": 2081,
      "max": [
        0.09112600237131119,
        0.11583399772644043,
        2.03958797454834
      ],
      "min": [
        -0.08390899747610092,
        -0.12189699709415436,
        1.8184200525283813
      ],
      "type": "VEC3"
    },
    {
      "bufferView": 2,
      "byteOffset": 146748,
      "componentType": 5126,
      "count": 2081,
      "max": [
        0.9999377727508545,
        0.9999797344207764,
        0.9989190697669983
      ],
      "min": [
        -0.9998247027397156,
        -0.999953031539917,
        -0.9999490976333618
      ],
      "type": "VEC3"
    },
    {
      "bufferView": 1,
      "byteOffset": 40592,
      "componentType": 5126,
      "count": 2081,
      "max": [
        0.9842950105667114,
        0.9826319813728333
      ],
      "min": [
        0.00801400002092123,
        0.09520400315523148
      ],
      "type": "VEC2"
    },
    {
      "bufferView": 0,
      "byteOffset": 86208,
      "componentType": 5125,
      "count": 11493,
      "type": "SCALAR"
    },
    {
      "bufferView": 2,
      "byteOffset": 171720,
      "componentType": 5126,
      "count": 967,
      "max": [
        0.7804129719734192,
        0.0728750005364418,
        1.2840030193328857
      ],
      "min": [
        -0.7796609997749329,
        -0.07282000035047531,
        1.0521260499954224
      ],
      "type": "VEC3"
    },
    {
      "bufferView": 2,
      "byteOffset": 183324,
      "componentType": 5126,
      "count": 967,
      "max": [
        0.9989005923271179,
        0.9989739060401917,
        0.68653804063797
      ],
      "min": [
        -0.9988959431648254,
        -0.9964565634727478,
        -0.9969131946563721
      ],
      "type": "VEC3"
    },
    {
      "bufferView": 1,
      "byteOffset": 57240,
      "componentType": 5126,
      "count": 967,
      "max": [
        0.9543349742889404,
        0.3172309994697571
      ],
      "min": [
        0.5316320061683655,
        0.22545300424098969
      ],
      "type": "VEC2"
    },
    {
      "bufferView": 0,
      "byteOffset": 132180,
      "componentType": 5125,
      "count": 4686,
      "type": "SCALAR"
    },
    {
      "bufferView": 2,
      "byteOffset": 194928,
      "componentType": 5126,
      "count": 321,
      "max": [
        -0.018986999988555908,
        -0.0519229993224144,
        1.9163249731063843
      ],
      "min": [
        -0.04568900167942047,
        -0.07512599974870682,
        1.8896230459213257
      ],
      "type": "VEC3"
    },
    {
      "bufferView": 2,
      "byteOffset": 198780,
      "componentType": 5126,
      "count": 321,
      "max": [
        0.9975318908691406,
        0.6419476270675659,
        0.999896764755249
      ],
      "min": [
        -0.9994139671325684,
        -0.9981066584587097,
        -0.9997730851173401
      ],
      "type": "VEC3"
    },
    {
      "bufferView": 1,
      "byteOffset": 64976,
      "componentType": 5126,
      "count": 321,
      "max": [
        0.9804689884185791,
        0.5708010196685791
      ],
      "min": [
        0.8227540254592896,
        0.31054699420928955
      ],
      "type": "VEC2"
    },
    {
      "bufferView": 0,
      "byteOffset": 150924,
      "componentType": 5125,
      "count": 1818,
      "type": "SCALAR"
    },
    {
      "bufferView": 2,
      "byteOffset": 202632,
      "componentType": 5126,
      "count": 2759,
      "max": [
        0.1113860011100769,
        0.114656001329422,
        2.0165250301361084
      ],
      "min": [
        -0.10453300178050995,
        -0.11494900286197662,
        1.6593470573425293
      ],
      "type": "VEC3"
    },
    {
      "bufferView": 2,
      "byteOffset": 235740,
      "componentType": 5126,
      "count": 2759,
      "max": [
        0.9998354315757751,
        0.9997060894966125,
        0.9999814033508301
      ],
      "min": [
        -0.9998860359191895,
        -0.9995378851890564,
        -0.9999256134033203
      ],
      "type": "VEC3"
    },
    {
      "bufferView": 1,
      "byteOffset": 67544,
      "componentType": 5126,
      "count": 2759,
      "max": [
        0.9916989803314209,
        0.9974349737167358
      ],
      "min": [
        0.0047450000420212746,
        0.0034179999493062496
      ],
      "type": "VEC2"
    },
    {
      "bufferView": 0,
      "byteOffset": 158196,
      "componentType": 5125,
      "count": 15075,
      "type": "SCALAR"
    },
    {
      "bufferView": 2,
      "byteOffset": 268848,
      "componentType": 5126,
      "count": 116,
      "max": [
        0.059748999774456024,
        -0.06808199733495712,
        1.9273719787597656
      ],
      "min": [
        0.01038500014692545,
        -0.09451799839735031,
        1.9121290445327759
      ],
      "type": "VEC3"
    },
    {
      "bufferView": 2,
      "byteOffset": 270240,
      "componentType": 5126,
      "count": 116,
      "max": [
        0.9770158529281616,
        0.9738799929618835,
        0.9784588813781738
      ],
      "min": [
        -0.9810528755187988,
        -0.967613935470581,
        -0.997512698173523
      ],
      "type": "VEC3"
    },
    {
      "bufferView": 1,
      "byteOffset": 89616,
      "componentType": 5126,
      "count": 116,
      "max": [
        0.9448239803314209,
        0.3085939884185791
      ],
      "min": [
        0.7963870167732239,
        0.18652300536632538
      ],
      "type": "VEC2"
    },
    {
      "bufferView": 0,
      "byteOffset": 218496,
      "componentType": 5125,
      "count": 585,
      "type": "SCALAR"
    }
  ],
  "asset": {
    "extras": {
      "author": "igorviniciusfreitasouza (https://sketchfab.com/igorviniciusfreitasouza)",
      "license": "CC-BY-4.0 (http://creativecommons.org/licenses/by/4.0/)",
      "source": "https://sketchfab.com/3d-models/tenth-doctor-a3c25e168c6346e2aaa9c071ab8f5a9d",
      "title": "tenth doctor"
    },
    "generator": "Sketchfab-13.93.0",
    "version": "2.0"
  },
  "bufferViews": [
    {
      "buffer": 0,
      "byteLength": 220836,
      "name": "floatBufferViews",
      "target": 34963
    },
    {
      "buffer": 0,
      "byteLength": 90544,
      "byteOffset": 220836,
      "byteStride": 8,
      "name": "floatBufferViews",
      "target": 34962
    },
    {
      "buffer": 0,
      "byteLength": 271632,
      "byteOffset": 311380,
      "byteStride": 12,
      "name": "floatBufferViews",
      "target": 34962
    }
  ],
  "buffers": [
    {
      "byteLength": 583012,
      "uri": "scene.bin"
    }
  ],
  "images": [
    {
      "uri": "textures/BaseTexture.000_baseColor.png"
    },
    {
      "uri": "textures/Hair_D_baseColor.png"
    },
    {
      "uri": "textures/caraunchar_baseColor.png"
    }
  ],
  "materials": [
    {
      "doubleSided": true,
      "name": "BaseTexture.000",
      "pbrMetallicRoughness": {
        "baseColorTexture": {
          "index": 0
        },
        "metallicFactor": 0.0,
        "roughnessFactor": 0.9845996485587949
      }
    },
    {
      "doubleSided": true,
      "name": "DiffuseMap",
      "pbrMetallicRoughness": {
        "baseColorTexture": {
          "index": 0
        },
        "metallicFactor": 0.0,
        "roughnessFactor": 0.9845147949265877
      }
    },
    {
      "doubleSided": true,
      "name": "DiffuseMap.001",
      "pbrMetallicRoughness": {
        "baseColorTexture": {
          "index": 0
        },
        "metallicFactor": 0.0,
        "roughnessFactor": 0.9845996485587949
      }
    },
    {
      "doubleSided": true,
      "name": "DiffuseMap.006",
      "pbrMetallicRoughness": {
        "baseColorTexture": {
          "index": 0
        },
        "metallicFactor": 0.0
      }
    },
    {
      "doubleSided": true,
      "name": "DiffuseMap.007",
      "pbrMetallicRoughness": {
        "baseColorTexture": {
          "index": 0
        },
        "metallicFactor": 0.0,
        "roughnessFactor": 0.9845996485587949
      }
    },
    {
      "doubleSided": true,
      "name": "Hair_D",
      "pbrMetallicRoughness": {
        "baseColorTexture": {
          "index": 1
        },
        "metallicFactor": 0.0,
        "roughnessFactor": 0.8434915419926713
      }
    },
    {
      "doubleSided": true,
      "name": "Material.003",
      "pbrMetallicRoughness": {
        "baseColorTexture": {
          "index": 0
        },
        "metallicFactor": 0.0,
        "roughnessFactor": 0.9787287265823786
      }
    },
    {
      "doubleSided": true,
      "name": "caraunchar",
      "pbrMetallicRoughness": {
        "baseColorTexture": {
          "index": 2
        },
        "metallicFactor": 0.0,
        "roughnessFactor": 0.8434915419926713
      }
    },
    {
      "doubleSided": true,
      "name": "head_d",
      "pbrMetallicRoughness": {
        "baseColorTexture": {
          "index": 2
        },
        "metallicFactor": 0.0,
        "roughnessFactor": 0.8434915419926713
      }
    },
    {
      "doubleSided": true,
      "name": "head_d.001",
      "pbrMetallicRoughness": {
        "baseColorTexture": {
          "index": 2
        },
        "metallicFactor": 0.0,
        "roughnessFactor": 0.8434915419926713
      }
    }
  ],
  "meshes": [
    {
      "name": "Object_0",
      "primitives": [
        {
          "attributes": {
            "NORMAL": 1,
            "POSITION": 0,
            "TEXCOORD_0": 2
          },
          "indices": 3,
          "material": 0,
          "mode": 4
        }
      ]
    },
    {
      "name": "Object_1",
      "primitives": [
        {
          "attributes": {
            "NORMAL": 5,
            "POSITION": 4,
            "TEXCOORD_0": 6
          },
          "indices": 7,
          "material": 1,
          "mode": 4
        }
      ]
    },
    {
      "name": "Object_2",
      "primitives": [
        {
          "attributes": {
            "NORMAL": 9,
            "POSITION": 8,
            "TEXCOORD_0": 10
          },
          "indices": 11,
          "material": 2,
          "mode": 4
        }
      ]
    },
    {
      "name": "Object_3",
      "primitives": [
        {
          "attributes": {
            "NORMAL": 13,
            "POSITION": 12,
            "TEXCOORD_0": 14
          },
          "indices": 15,
          "material": 3,
          "mode": 4
        }
      ]
    },
    {
      "name": "Object_4",
      "primitives": [
        {
          "attributes": {
            "NORMAL": 17,
            "POSITION": 16,
            "TEXCOORD_0": 18
          },
          "indices": 19,
          "material": 4,
          "mode": 4
        }
      ]
    },
    {
      "name": "Object_5",
      "primitives": [
        {
          "attributes": {
            "NORMAL": 21,
            "POSITION": 20,
            "TEXCOORD_0": 22
          },
          "indices": 23,
          "material": 5,
          "mode": 4
        }
      ]
    },
    {
      "name": "Object_6",
      "primitives": [
        {
          "attributes": {
            "NORMAL": 25,
            "POSITION": 24,
            "TEXCOORD_0": 26
          },
          "indices": 27,
          "material": 6,
          "mode": 4
        }
      ]
    },
    {
      "name": "Object_7",
      "primitives": [
        {
          "attributes": {
            "NORMAL": 29,
            "POSITION": 28,
            "TEXCOORD_0": 30
          },
          "indices": 31,
          "material": 7,
          "mode": 4
        }
      ]
    },
    {
      "name": "Object_8",
      "primitives": [
        {
          "attributes": {
            "NORMAL": 33,
            "POSITION": 32,
            "TEXCOORD_0": 34
          },
          "indices": 35,
          "material": 8,
          "mode": 4
        }
      ]
    },
    {
      "name": "Object_9",
      "primitives": [
        {
          "attributes": {
            "NORMAL": 37,
            "POSITION": 36,
            "TEXCOORD_0": 38
          },
          "indices": 39,
          "material": 9,
          "mode": 4
        }
      ]
    }
  ],
  "nodes": [
    {
      "children": [
        1
      ],
      "matrix": [
        1.0,
        0.0,
        0.0,
        0.0,
        0.0,
        2.220446049250313e-16,
        -1.0,
        0.0,
        0.0,
        1.0,
        2.220446049250313e-16,
        0.0,
        0.0,
        0.0,
        0.0,
        1.0
      ],
      "name": "Sketchfab_model"
    },
    {
      "children": [
        2,
        3,
        4,
        5,
        6,
        7,
        8,
        9,
        10,
        11
      ],
      "name": "10th.obj.cleaner.materialmerger.gles"
    },
    {
      "mesh": 0,
      "name": "Object_2"
    },
    {
      "mesh": 1,
      "name": "Object_3"
    },
    {
      "mesh": 2,
      "name": "Object_4"
    },
    {
      "mesh": 3,
      "name": "Object_5"
    },
    {
      "mesh": 4,
      "name": "Object_6"
    },
    {
      "mesh": 5,
      "name": "Object_7"
    },
    {
      "mesh": 6,
      "name": "Object_8"
    },
    {
      "mesh": 7,
      "name": "Object_9"
    },
    {
      "mesh": 8,
      "name": "Object_10"
    },
    {
      "mesh": 9,
      "name": "Object_11"
    }
  ],
  "samplers": [
    {
      "magFilter": 9729,
      "minFilter": 9987,
      "wrapS": 10497,
      "wrapT": 10497
    }
  ],
  "scene": 0,
  "scenes": [
    {
      "name": "Sketchfab_Scene",
      "nodes": [
        0
      ]
    }
  ],
  "textures": [
    {
      "sampler": 0,
      "source": 0
    },
    {
      "sampler": 0,
      "source": 1
    },
    {
      "sampler": 0,
      "source": 2
    }
  ]
}
